<svg xmlns="http://www.w3.org/2000/svg" xmlns:xlink="http://www.w3.org/1999/xlink" width="238.21" height="35.518" viewBox="0 0 238.21 35.518"><defs><style>.a{fill:#333;}.a,.b,.c{fill-rule:evenodd;}.b{fill:#ffcc29;}.c{fill:url(#a);}.d{fill:#fff;font-size:8px;font-family:Montserrat-Bold, Montserrat;font-weight:700;}</style><linearGradient id="a" x1="-0.786" y1="1.157" x2="2.685" y2="-0.535" gradientUnits="objectBoundingBox"><stop offset="0" stop-color="#ffec00"/><stop offset="0.121" stop-color="#fee901"/><stop offset="0.201" stop-color="#fbe004"/><stop offset="0.27" stop-color="#f6d10a"/><stop offset="0.332" stop-color="#eebb13"/><stop offset="0.389" stop-color="#e5a01e"/><stop offset="0.394" stop-color="#e59e20"/><stop offset="0.398" stop-color="#e49d20"/><stop offset="0.674" stop-color="#e19324"/><stop offset="1" stop-color="#e19026"/></linearGradient></defs><g transform="translate(0 -0.005)"><g transform="translate(0 3.305)"><path class="a" d="M268.8,31.194h9.911a5.239,5.239,0,0,1,5.157,6.8,12.629,12.629,0,0,1-2.374,4.77,4.939,4.939,0,0,1-3.76,2.014l2.55,3.415a2.308,2.308,0,0,1,.255,2.114,3.387,3.387,0,0,1-3.565,2.715,2.9,2.9,0,0,1-2.472-1.337l-3.791-6.767a3.3,3.3,0,0,1-.671-2.815,3.384,3.384,0,0,1,3.6-2.743l2.007-.015c1.479.02,2.337-.419,2.563-1.323.247-.9-.372-1.35-1.846-1.35h-6.225L266.42,50.287a3.37,3.37,0,0,1-3.585,2.73q-2.843.015-2.085-2.7l4.49-16.415A3.4,3.4,0,0,1,268.8,31.194Z" transform="translate(-60.244 -23.883)"/><path class="a" d="M219.046,31.166l14.278.023q2.626.042,1.929,2.651a3.486,3.486,0,0,1-3.623,2.823h-4.22L223.7,50.3a3.421,3.421,0,0,1-3.579,2.715q-2.826,0-2.1-2.645l3.762-13.7h-4.235q-2.826,0-2.074-2.744A3.451,3.451,0,0,1,219.046,31.166Z" transform="translate(-51.832 -23.878)"/><path class="a" d="M207.536,33.924a3.336,3.336,0,0,1-3.473,2.744l-8.591-.014q-2.862.027-3.26,1.393-.314,1.3,2.544,1.281h2.781q8.507.027,6.659,6.921-1.832,6.7-10.38,6.742h-8.484q-2.82-.015-2.078-2.674a3.3,3.3,0,0,1,3.515-2.688l8.524-.042q2.853-.015,3.238-1.407c.252-.927-.585-1.388-2.505-1.378h-2.779q-8.482-.015-6.639-6.754,1.812-6.833,10.358-6.853h8.494C207.322,31.2,208.011,32.117,207.536,33.924Z" transform="translate(-45.847 -23.883)"/><path class="a" d="M180.926,31.194q2.819.029,2.127,2.708l-4.484,16.4a3.475,3.475,0,0,1-3.6,2.772q-2.809-.056-2.069-2.758l4.486-16.407A3.347,3.347,0,0,1,180.926,31.194Z" transform="translate(-43.925 -23.883)"/><path class="a" d="M153.2,31.194h9.911a5.237,5.237,0,0,1,5.156,6.8,12.617,12.617,0,0,1-2.373,4.77,4.939,4.939,0,0,1-3.758,2.014l2.549,3.415a2.306,2.306,0,0,1,.256,2.114,3.387,3.387,0,0,1-3.565,2.715,2.9,2.9,0,0,1-2.472-1.337l-3.793-6.767a3.312,3.312,0,0,1-.671-2.815,3.386,3.386,0,0,1,3.6-2.743l2.009-.015c1.479.02,2.335-.419,2.563-1.323.245-.9-.373-1.35-1.847-1.35h-6.226L150.82,50.287a3.368,3.368,0,0,1-3.583,2.73q-2.846.015-2.085-2.7L149.64,33.9A3.4,3.4,0,0,1,153.2,31.194Z" transform="translate(-38.768 -23.883)"/><path class="a" d="M128.226,31.166l14.278.023q2.627.042,1.931,2.651a3.49,3.49,0,0,1-3.626,2.823h-4.22L132.878,50.3a3.422,3.422,0,0,1-3.58,2.715q-2.826,0-2.1-2.645l3.76-13.7h-4.235q-2.826,0-2.072-2.744A3.448,3.448,0,0,1,128.226,31.166Z" transform="translate(-34.959 -23.878)"/><path class="a" d="M101.411,31.16c1.88,0,2.59.875,2.115,2.632L101.243,42.1q-1.462,5.457,2.788,5.488,4.247-.044,5.725-5.5l2.241-8.2a3.462,3.462,0,0,1,3.592-2.759c1.86.05,2.547.978,2.066,2.766l-2.242,8.2q-3,10.906-12.864,10.9-9.94.071-6.953-10.9l2.245-8.211A3.407,3.407,0,0,1,101.411,31.16Z" transform="translate(-29.463 -23.872)"/><path class="a" d="M74.312,31.228a2.606,2.606,0,0,1,2.153,1.119l5.6,10.429,2.5-9.158a3,3,0,0,1,3.053-2.39q3.162.044,2.535,2.447L85.547,50.649Q84.879,53,81.666,53.024a2.18,2.18,0,0,1-2.055-1.116l-5.651-10.4-2.5,9.144a2.96,2.96,0,0,1-3.106,2.375q-3.191.015-2.547-2.4L70.46,33.6Q71.09,31.244,74.312,31.228Z" transform="translate(-24.037 -23.889)"/><path class="a" d="M238.893,50.071h8.089l.176,1.056a2.058,2.058,0,0,0,2.211,1.963,4.545,4.545,0,0,0,1.321-.2,4.9,4.9,0,0,0,1.257-.587,4.554,4.554,0,0,0,1.021-.908,3.123,3.123,0,0,0,.613-1.172c.027-.177.064-.366.11-.572a1.472,1.472,0,0,0,0-.631L251.058,33.13a2.067,2.067,0,0,0-.749-1.5,2.473,2.473,0,0,0-1.523-.468,4.159,4.159,0,0,0-1.31.219,5.28,5.28,0,0,0-1.245.6,4.281,4.281,0,0,0-1.006.909,3.207,3.207,0,0,0-.6,1.172,4.407,4.407,0,0,0-.118.6,1.851,1.851,0,0,0,.013.572l1.574,9.379h-3.119l.587-.791a2.534,2.534,0,0,0,.361-.585,4.426,4.426,0,0,0,.206-.587,2.17,2.17,0,0,0,.028-1.172,2.312,2.312,0,0,0-.5-.924,2.37,2.37,0,0,0-.913-.615,3.238,3.238,0,0,0-1.205-.22,3.719,3.719,0,0,0-1.785.483,4.529,4.529,0,0,0-1.571,1.51l-5.452,7.3a4.787,4.787,0,0,0-.576,1.2,2.151,2.151,0,0,0-.028,1.172,2.083,2.083,0,0,0,.524.908,2.486,2.486,0,0,0,.936.587,3.522,3.522,0,0,0,1.21.2,3.59,3.59,0,0,0,1.749-.468,4.742,4.742,0,0,0,1.567-1.495Z" transform="translate(-54.943 -23.878)"/><path class="b" d="M55.578,22.286H52.644c-1.2,0-2.336-.039-3.154,1.006a3.25,3.25,0,0,0-.059,3.617L55.487,35.8a1.317,1.317,0,0,0,.5.533,1.162,1.162,0,0,0,1.245-.156,1.748,1.748,0,0,0,.4-.849l.234-.728,1.95-6.081C60.909,25.088,59,22.286,55.578,22.286Z" transform="translate(-20.918 -22.228)"/><path class="b" d="M19.075,58.554h2.933c1.2,0,2.337.038,3.155-1.007a3.254,3.254,0,0,0,.06-3.617l-6.057-8.888a1.317,1.317,0,0,0-.5-.533,1.165,1.165,0,0,0-1.246.156,1.745,1.745,0,0,0-.394.85l-.234.728-1.951,6.08C13.743,55.749,15.648,58.554,19.075,58.554Z" transform="translate(-14.531 -26.335)"/><g transform="translate(5.606)"><path class="b" d="M32.062,22.217l-5.886,0a2.9,2.9,0,0,0-2.553,1.931l-1.772,5.506c-.491,1.526-.743,3.554.212,4.966L33.411,51.4a6.156,6.156,0,0,0,5.11,2.98h6.307a2.035,2.035,0,0,0,1.788-1.354l1.951-6.08a5.779,5.779,0,0,0-.467-5.488L37.143,25.2A6.363,6.363,0,0,0,32.062,22.217Z" transform="translate(-21.415 -22.215)"/><path class="c" d="M24.754,24.725,23.036,29.99c-.476,1.458-.72,3.4.205,4.748l11,16.043a5.981,5.981,0,0,0,4.953,2.849H45.3a1.659,1.659,0,0,0,.729-.187L25.758,23.4A2.747,2.747,0,0,0,24.754,24.725Z" transform="translate(-21.638 -22.435)"/></g></g><text class="d" transform="matrix(1, -0.02, 0.02, 1, 225.173, 8.259)"><tspan x="0" y="0">TM</tspan></text></g></svg>