<svg xmlns="http://www.w3.org/2000/svg" xmlns:xlink="http://www.w3.org/1999/xlink" width="55" height="55" viewBox="0 0 55 55"><defs><style>.a{fill:url(#a);}.b{fill:#ffcc29;}.b,.c{fill-rule:evenodd;}.c{fill:url(#b);}</style><radialGradient id="a" cx="0.338" cy="0.691" r="0.912" gradientTransform="matrix(1, 0, 0, -1, 0, -21.349)" gradientUnits="objectBoundingBox"><stop offset="0.377" stop-color="#404040"/><stop offset="0.863" stop-color="#222"/><stop offset="0.923" stop-color="#1e1e1e"/></radialGradient><linearGradient id="b" x1="-0.79" y1="-22.456" x2="2.69" y2="-20.766" gradientUnits="objectBoundingBox"><stop offset="0" stop-color="#ffec00"/><stop offset="0.12" stop-color="#fee901"/><stop offset="0.2" stop-color="#fbe005"/><stop offset="0.27" stop-color="#f6d10b"/><stop offset="0.33" stop-color="#efbc14"/><stop offset="0.39" stop-color="#e6a11f"/><stop offset="0.39" stop-color="#e59e20"/><stop offset="0.4" stop-color="#e59e20"/><stop offset="0.67" stop-color="#e29325"/><stop offset="1" stop-color="#e19026"/></linearGradient></defs><g transform="translate(-25 -15)"><path class="a" d="M5.336,0H49.664A5.342,5.342,0,0,1,55,5.336V49.664A5.342,5.342,0,0,1,49.664,55H5.336A5.342,5.342,0,0,1,0,49.664V5.336A5.257,5.257,0,0,1,5.336,0Z" transform="translate(25 15)"/><path class="b" d="M31.511,9.6h-2.6a3.259,3.259,0,0,0-2.873.958,2.881,2.881,0,0,0,0,3.284l5.473,7.935c.137.137.274.41.41.41a1.033,1.033,0,0,0,1.095-.137l.41-.821.274-.684,1.779-5.473C36.3,12.063,34.657,9.6,31.511,9.6Z" transform="translate(34.396 18.534)"/><path class="b" d="M11.309,34.011h2.6a3.259,3.259,0,0,0,2.873-.958,2.881,2.881,0,0,0,0-3.284l-5.473-7.935c-.137-.137-.274-.41-.41-.41a1.033,1.033,0,0,0-1.095.137l-.41.821-.274.684L7.341,28.539C6.657,31.549,8.3,34.011,11.309,34.011Z" transform="translate(27.646 22.854)"/><path class="b" d="M20.51,9.6H15.174a2.463,2.463,0,0,0-2.326,1.779L11.206,16.3c-.41,1.368-.684,3.147.137,4.378l10.124,15.05a5.746,5.746,0,0,0,4.515,2.736h5.609a1.917,1.917,0,0,0,1.642-1.231l1.779-5.473a5.251,5.251,0,0,0-.41-4.925l-9.851-14.5A4.457,4.457,0,0,0,20.51,9.6Z" transform="translate(28.98 18.534)"/><path class="c" d="M13.511,11.431l-1.5,4.789c-.41,1.368-.684,3.01.137,4.241l9.851,14.366a5.572,5.572,0,0,0,4.378,2.463h5.473a1.233,1.233,0,0,0,.684-.137L14.332,10.2A1.992,1.992,0,0,0,13.511,11.431Z" transform="translate(29.275 18.755)"/></g></svg>