<svg xmlns="http://www.w3.org/2000/svg" width="56" height="34" viewBox="0 0 56 34"><defs><style>.a,.d{fill:#fff;}.b{fill:#f7b31c;}.b,.c,.d{fill-rule:evenodd;}.c{fill:#e21e26;}.e{fill:none;stroke:#fff;stroke-miterlimit:2.613;stroke-width:0.164px;}</style></defs><g transform="translate(-2764 -6237)"><rect class="a" width="56" height="34" rx="5" transform="translate(2764 6237)"/><g transform="translate(2767.68 6242.95)"><path class="b" d="M25.862,21.026l.489-.016.489-.032.473-.063.473-.079.457-.11.441-.126.441-.142.441-.173.426-.189.41-.221.394-.221.378-.252.378-.268.362-.284.347-.3.315-.315.331-.331.284-.331.284-.362.268-.378.252-.378.221-.41.221-.41.189-.41.173-.441.142-.441.126-.441.11-.457.079-.473.063-.473.032-.489.016-.489-.016-.489-.032-.473-.063-.473-.079-.473-.11-.457-.126-.441L34.8,8.275l-.173-.441-.189-.41-.221-.41-.221-.394-.252-.394-.268-.362L33.191,5.5l-.284-.347-.331-.331-.315-.315-.347-.284-.362-.284-.378-.268L30.8,3.421,30.4,3.2l-.41-.2-.426-.2-.441-.158-.441-.158-.441-.126-.457-.11-.473-.079L26.839,2.1l-.489-.032-.489-.016-.489.016-.489.032-.473.063-.457.079-.457.11-.457.126-.441.158-.426.158-.426.2-.41.2-.394.221-.378.252-.378.268-.347.284-.347.284-.331.315-.315.331-.3.347-.284.362-.252.362-.252.394-.221.394-.221.41-.189.41-.173.441-.142.441-.126.441-.11.457-.079.473-.063.473-.032.473-.016.489.016.489.032.489.063.473.079.473.11.457.126.441.142.441.173.441.189.41.221.41.221.41.252.378.252.378.284.362.3.331.315.331.331.315.347.3.347.284.378.268.378.252.394.221.41.221.426.189.426.173.441.142.457.126.457.11.457.079.473.063.489.032.489.016Z" transform="translate(4.649)"/><path class="c" d="M17.824,21.026l.489-.016.473-.032.473-.063.473-.079.457-.11.457-.126.426-.142.441-.173.41-.189.41-.221.394-.221.394-.252.362-.268.362-.284.347-.3.331-.315.315-.331.284-.331.284-.362.268-.378.252-.378.221-.41.2-.41.189-.41.173-.441.158-.441L27,13.9l.095-.457.095-.473.047-.473.047-.489.016-.489-.016-.489-.047-.473-.047-.473-.095-.473L27,9.158l-.126-.441-.158-.441-.173-.441-.189-.41-.2-.41-.221-.394-.252-.394L25.4,5.864,25.121,5.5l-.284-.347-.315-.331-.331-.315-.347-.284-.362-.284-.362-.268-.394-.252L22.331,3.2l-.41-.2-.41-.2-.441-.158-.426-.158-.457-.126-.457-.11-.473-.079L18.785,2.1l-.473-.032-.489-.016-.489.016-.489.032-.473.063-.473.079-.457.11-.457.126-.441.158-.426.158-.426.2-.41.2-.394.221-.394.252-.362.268-.362.284-.347.284-.331.315-.315.331-.3.347-.284.362-.268.362-.236.394-.236.394-.2.41-.189.41-.173.441-.142.441L8.6,9.158l-.095.457-.095.473-.047.473-.047.473v.977l.047.489.047.473.095.473L8.6,13.9l.142.441.142.441.173.441.189.41.2.41.236.41.236.378.268.378.284.362.3.331.315.331.331.315.347.3.362.284.362.268.394.252.394.221.41.221.426.189.426.173.441.142.457.126.457.11.473.079.473.063.489.032.489.016Z" transform="translate(0)"/><path class="b" d="M17.67,4.55h5.043V4.03H18.1l-.426.52Z" transform="translate(5.386 1.141)"/><path class="b" d="M17.19,5.28h5.8V4.76h-5.5l-.3.52Z" transform="translate(5.11 1.561)"/><path class="b" d="M16.83,6H23.2V5.48H17.051L16.83,6Z" transform="translate(4.902 1.976)"/><path class="b" d="M16.59,6.73h6.746V6.21H16.748l-.158.52Z" transform="translate(4.764 2.396)"/><path class="b" d="M16.788,10.24h6.541V9.72h-6.7l.158.52Z" transform="translate(4.787 4.418)"/><path class="b" d="M17.132,10.97h6.052v-.52h-6.3l.252.52Z" transform="translate(4.931 4.839)"/><path class="b" d="M17.591,11.684h5.374v-.5H17.26l.331.5Z" transform="translate(5.15 5.26)"/><path class="b" d="M18.227,12.42h4.445V11.9h-4.9l.457.52Z" transform="translate(5.444 5.674)"/><path class="b" d="M16.44,7.444h6.982v-.5H16.55l-.11.5Z" transform="translate(4.678 2.817)"/><path class="b" d="M19.14,9.52H21.8V9H19.235l-.095.52Z" transform="translate(6.233 4.004)"/><path class="b" d="M19.27,8.79h2.459V8.27H19.365l-.095.52Z" transform="translate(6.308 3.583)"/><path class="b" d="M16.33,8.27h.693v.52h-.662l-.032-.52Z" transform="translate(4.614 3.583)"/><path class="d" d="M16.489,8.18l-.047-.016h-.079l-.047-.016h-.032l-.047-.016h-.079l-.047-.016h-.394l-.095.016h-.063l-.063.016-.047.016L15.4,8.18l-.047.032-.047.016-.032.032-.032.032-.016.032-.016.047v.11l.016.047.032.032.032.047.063.063.079.047.079.047.095.032.11.032.11.032.095.047.11.032L16.127,9l.095.063.079.079.063.095.047.126.032.142.016.173-.016.2-.016.142-.047.142-.047.11-.063.11-.079.095-.079.079-.095.079-.095.047-.095.063-.11.032-.11.032-.11.032-.11.016-.11.016h-.788l-.079-.016H14.33l-.079-.016h-.063l-.063-.016-.063-.016-.047-.016h-.047l-.063-.032-.047-.016-.047-.016.142-.709h.032l.032.016.047.016.047.016h.063l.063.016.063.016.079.016.079.016.095.016h.079l.095.016h.362l.095-.016.079-.032.047-.032.047-.047.032-.047.032-.047.016-.047.016-.047V9.756l-.032-.079-.047-.063-.079-.063L15.2,9.5l-.11-.047-.126-.047-.126-.047-.126-.047-.126-.079-.11-.079-.11-.095-.079-.126-.047-.142L14.2,8.621v-.2l.016-.126.016-.126.032-.095.047-.11.047-.095.063-.079.063-.079.079-.079.095-.063.11-.047.11-.047.126-.032.142-.032.158-.016.173-.016.189-.016H15.8l.095.016h.189l.079.016H16.3l.063.016h.047l.047.016h.047l.032.016H16.6l.032.016h.032l-.173.725Z" transform="translate(3.163 3.059)"/><path class="e" d="M16.489,8.18h0l-.047-.016h-.079l-.047-.016h-.032l-.047-.016h-.079l-.047-.016h-.394l-.095.016h-.063l-.063.016-.047.016L15.4,8.18l-.047.032-.047.016-.032.032-.032.032-.016.032-.016.047v.11l.016.047.032.032.032.047h0l.063.063.079.047.079.047.095.032.11.032.11.032.095.047.11.032L16.127,9l.095.063.079.079.063.095.047.126.032.142.016.173-.016.2h0l-.016.142-.047.142-.047.11-.063.11-.079.095-.079.079-.095.079-.095.047-.095.063-.11.032-.11.032-.11.032-.11.016-.11.016h-.788l-.079-.016H14.33l-.079-.016h-.063l-.063-.016-.063-.016-.047-.016h-.047l-.063-.032-.047-.016-.047-.016.142-.709h.032l.032.016.047.016.047.016h.063l.063.016.063.016.079.016.079.016.095.016h.079l.095.016h.362l.095-.016.079-.032.047-.032.047-.047.032-.047.032-.047.016-.047.016-.047h0V9.756l-.032-.079-.047-.063-.079-.063L15.2,9.5l-.11-.047-.126-.047-.126-.047-.126-.047-.126-.079-.11-.079-.11-.095-.079-.126-.047-.142L14.2,8.621v-.2h0l.016-.126.016-.126.032-.095.047-.11.047-.095.063-.079.063-.079.079-.079.095-.063.11-.047.11-.047.126-.032.142-.032.158-.016.173-.016.189-.016H15.8l.095.016h.189l.079.016H16.3l.063.016h.047l.047.016h.047l.032.016H16.6l.032.016h.032l-.173.725" transform="translate(3.163 3.059)"/><path class="d" d="M16.22,6.92h.9l-.142.772h.536l-.11.725L16.835,8.4l-.3,1.781-.016.063.016.047.032.047.047.032.063.032.063.016.063.016h.221l.047-.016.063-.016.032-.016H17.2l.016-.016h.016l-.11.6-.032.016L17.072,11l-.032.016h-.016l-.032.016-.016.016h-.032l-.032.016h-.032l-.032.016h-.032l-.047.016h-.079l-.063.016H16.2l-.11-.016L16,11.081l-.095-.032-.063-.032-.063-.032-.063-.032-.032-.047-.032-.047-.032-.047-.016-.047V10.7l-.016-.079v-.063l.016-.079.016-.079.6-3.483Z" transform="translate(4.188 2.805)"/><path class="e" d="M16.22,6.92h.9l-.142.772h.536l-.11.725L16.835,8.4l-.3,1.781h0l-.016.063.016.047.032.047.047.032.063.032.063.016.063.016h.221l.047-.016.063-.016.032-.016H17.2l.016-.016h.016l-.11.6h0l-.032.016L17.072,11l-.032.016h-.016l-.032.016-.016.016h-.032l-.032.016h-.032l-.032.016h-.032l-.047.016h-.079l-.063.016H16.2l-.11-.016L16,11.081l-.095-.032-.063-.032-.063-.032-.063-.032-.032-.047-.032-.047-.032-.047-.016-.047V10.7l-.016-.079v-.063l.016-.079.016-.079.6-3.483" transform="translate(4.188 2.805)"/><path class="d" d="M17.6,9.362l-.016.063v.047l.016.063V9.6l.032.063.016.063.047.047.032.063.047.047.047.047.047.047.063.047.063.032.063.032.063.016.063.016.079.016.079.016h.079l.095.016h.252l.079-.016.095-.016.079-.016.095-.016.079-.032.095-.032.095-.032.095-.063L19.57,9.9l-.142.788-.047.016-.047.032-.047.016-.047.032-.047.016-.063.016h-.047l-.047.016-.063.016h-.126l-.079.016H18.23l-.158-.016-.158-.016-.158-.047-.158-.047-.158-.063-.142-.079-.126-.095-.126-.11-.11-.126-.095-.142-.079-.173-.047-.189-.047-.221V9.3l.016-.252.016-.11.016-.11.016-.126.047-.142.047-.126.047-.142.079-.142.095-.142.095-.126.126-.126.142-.095.158-.11.189-.079.2-.047.236-.047.252-.016.126.016.142.016.126.016.126.032.126.047.126.063.126.079.095.079.095.11.079.126.063.158.047.158.032.2v.2l-.016.252-.047.268-.016.189H17.348l.142-.63h1.4V8.526l-.016-.063L18.845,8.4l-.016-.063L18.8,8.29l-.032-.032-.032-.047-.047-.032-.047-.032-.047-.016L18.546,8.1h-.063l-.047-.016h-.173L18.2,8.1l-.047.016-.063.032-.047.032-.047.032-.032.047-.047.032-.032.047-.047.063-.032.047-.016.063-.032.063-.016.063-.016.063-.126.662Z" transform="translate(4.81 3.059)"/><path class="e" d="M17.6,9.362h0l-.016.063v.047l.016.063V9.6l.032.063.016.063.047.047.032.063.047.047.047.047.047.047.063.047.063.032.063.032.063.016.063.016h0l.079.016.079.016h.079l.095.016h.252l.079-.016.095-.016.079-.016.095-.016.079-.032.095-.032.095-.032.095-.063L19.57,9.9l-.142.788h0l-.047.016-.047.032-.047.016-.047.032-.047.016-.063.016h-.047l-.047.016-.063.016h-.126l-.079.016H18.23l-.158-.016-.158-.016-.158-.047-.158-.047-.158-.063-.142-.079-.126-.095-.126-.11-.11-.126-.095-.142-.079-.173-.047-.189-.047-.221V9.3l.016-.252h0l.016-.11.016-.11.016-.126.047-.142.047-.126.047-.142.079-.142.095-.142.095-.126.126-.126.142-.095.158-.11.189-.079.2-.047.236-.047.252-.016h0l.126.016.142.016.126.016.126.032.126.047.126.063.126.079.095.079.095.11.079.126.063.158.047.158.032.2v.2l-.016.252-.047.268-.016.189H17.348l.142-.63h1.4V8.526l-.016-.063L18.845,8.4l-.016-.063L18.8,8.29l-.032-.032-.032-.047-.047-.032-.047-.032-.047-.016L18.546,8.1h-.063l-.047-.016h-.173L18.2,8.1l-.047.016-.063.032-.047.032-.047.032-.032.047-.047.032-.032.047-.047.063-.032.047-.016.063-.032.063-.016.063-.016.063-.126.662" transform="translate(4.81 3.059)"/><path class="d" d="M23.292,7.939l-.032-.016-.047-.032-.047-.016-.047-.032-.047-.016-.047-.016L22.961,7.8l-.047-.016-.063-.016-.063-.016-.063-.016-.079-.016h-.457l-.095.016-.079.016-.095.016-.095.032-.095.047-.079.063-.095.063-.079.095L21.4,8.16l-.079.126-.063.142-.079.158-.063.173-.047.2-.016.11-.016.126v.221l.016.095.016.11.032.095.032.095.047.095.063.079.063.079.079.063.079.047.11.063.11.032.11.032.047.016h.047l.063.016h.362l.079-.016.095-.016.079-.016.079-.032.079-.032.063-.047.079-.047.063-.047-.142.851-.032.016-.016.016-.016.016-.032.032-.032.016-.047.032-.063.016-.047.016-.079.032-.079.016-.095.016h-.11l-.126.016H21.7l-.173-.016-.142-.016-.158-.032-.142-.047L20.944,11l-.142-.079-.142-.095-.126-.11-.126-.126-.095-.142-.095-.158L20.14,10.1l-.063-.189-.032-.221-.016-.221.016-.252.032-.268.032-.126.016-.126.032-.126.032-.126.047-.11.032-.11.047-.11.047-.095.047-.095.047-.095.047-.095.063-.079.063-.079.063-.079.063-.079.063-.063.079-.063.063-.063.079-.047.079-.047.095-.047.079-.047.095-.047.095-.032.095-.032.095-.016.11-.032.11-.016L22,6.852l.11-.016h.11l.126-.016.11.016h.095l.095.016.095.016h.095l.079.032.079.016.079.016.079.016.063.016.063.016.047.032.047.016H23.4l.032.016.032.016-.173.883Z" transform="translate(6.746 2.748)"/><path class="e" d="M23.292,7.939h0l-.032-.016-.047-.032-.047-.016-.047-.032-.047-.016-.047-.016L22.961,7.8l-.047-.016-.063-.016-.063-.016-.063-.016-.079-.016h-.457l-.095.016-.079.016-.095.016-.095.032-.095.047-.079.063-.095.063-.079.095L21.4,8.16l-.079.126-.063.142-.079.158-.063.173-.047.2h0l-.016.11-.016.126v.221l.016.095.016.11.032.095.032.095.047.095.063.079.063.079.079.063.079.047.11.063.11.032.11.032h0l.047.016h.047l.063.016h.362l.079-.016.095-.016.079-.016.079-.032.079-.032.063-.047.079-.047.063-.047-.142.851h0l-.032.016-.016.016-.016.016-.032.032-.032.016-.047.032-.063.016-.047.016-.079.032-.079.016-.095.016h-.11l-.126.016H21.7l-.173-.016h0l-.142-.016-.158-.032-.142-.047L20.944,11l-.142-.079-.142-.095-.126-.11-.126-.126-.095-.142-.095-.158L20.14,10.1l-.063-.189-.032-.221-.016-.221.016-.252.032-.268h0l.032-.126.016-.126.032-.126.032-.126.047-.11.032-.11.047-.11.047-.095.047-.095.047-.095.047-.095.063-.079.063-.079.063-.079.063-.079.063-.063.079-.063.063-.063.079-.047.079-.047.095-.047.079-.047.095-.047.095-.032.095-.032.095-.016.11-.032.11-.016L22,6.852l.11-.016h.11l.126-.016h0l.11.016h.095l.095.016.095.016h.095l.079.032.079.016.079.016.079.016.063.016.063.016.047.032.047.016H23.4l.032.016.032.016-.173.883" transform="translate(6.746 2.748)"/><path class="d" d="M28.171,11.107h-.883l.063-.347v-.032l-.047.063-.063.047-.047.063-.063.032-.047.047-.063.032-.063.032-.047.032-.063.016-.063.016-.063.016-.063.016-.063.016h-.189l-.173-.016-.142-.032-.142-.047-.142-.079-.11-.095-.095-.11-.095-.11-.079-.142-.063-.142-.047-.142-.032-.158-.032-.173-.016-.158.016-.173.016-.158.016-.158.047-.189.063-.189.063-.158.079-.158.095-.142.095-.126.095-.11.11-.11.11-.095.11-.079.126-.063.126-.063.126-.047.126-.032.126-.016h.221L27.1,7.7l.079.016.079.016.079.032.063.016.063.047.063.032.047.032.047.047.047.047.032.032.032.047.032.047.032.032.016.032h0L28.03,6.93H28.9l-.725,4.177Z" transform="translate(9.747 2.811)"/><path class="e" d="M28.171,11.107h-.883l.063-.347v-.032h0l-.047.063-.063.047-.047.063-.063.032-.047.047-.063.032-.063.032-.047.032-.063.016-.063.016-.063.016-.063.016-.063.016h-.189l-.173-.016-.142-.032-.142-.047-.142-.079-.11-.095-.095-.11-.095-.11-.079-.142-.063-.142-.047-.142-.032-.158-.032-.173-.016-.158.016-.173.016-.158.016-.158h0l.047-.189.063-.189.063-.158.079-.158.095-.142.095-.126.095-.11.11-.11.11-.095.11-.079.126-.063.126-.063.126-.047.126-.032.126-.016h.221L27.1,7.7l.079.016.079.016.079.032.063.016.063.047.063.032.047.032.047.047.047.047.032.032.032.047.032.047.032.032.016.032h0L28.03,6.93H28.9l-.725,4.177" transform="translate(9.747 2.811)"/><path class="b" d="M26.341,9.776h.095l.079-.032.079-.016.079-.032.063-.047L26.8,9.6l.063-.047.047-.063.063-.063L27,9.366l.047-.079.032-.079.032-.079.032-.079.016-.095.016-.079.016-.095.016-.095V8.515l-.016-.079-.016-.079-.016-.079L27.129,8.2,27.1,8.136l-.032-.063-.047-.047-.047-.047-.047-.032-.063-.032L26.8,7.9h-.158l-.079.016-.063.032-.079.032-.063.032-.063.047-.063.063-.047.063-.047.063-.047.079-.047.079-.032.079-.032.095-.016.079-.032.095-.016.095-.016.142v.142l.032.158.032.158.063.126.095.11.095.063.126.032Z" transform="translate(10.127 3.37)"/><path class="d" d="M14.776,10.138l-.126.709h-.8l.016-.126.016-.126.016-.079.016-.047-.047.047-.047.047-.063.047-.063.047-.079.047-.079.032-.079.047-.095.032-.095.032-.095.016-.095.016-.095.016h-.095l-.079.016-.095-.016-.095-.016-.11-.032-.095-.032-.095-.032-.079-.047-.063-.063-.063-.047-.063-.063L12,10.5l-.032-.063-.032-.079-.032-.063-.016-.079-.016-.063v-.079L11.86,10V9.933l.016-.126.016-.11.032-.126.047-.095.047-.11.063-.095.063-.095.079-.079.079-.063.095-.079.079-.047.11-.063L12.68,8.8l.11-.032.11-.032.11-.016h.079l.032-.016h.095l.063-.016h.047l.063-.016h.158l.047-.016h.221l.079.016h.2l.016-.016.016-.063.016-.063V8.389l-.032-.063-.047-.047-.047-.047-.063-.047-.063-.032-.079-.016h-.079l-.095-.016h-.3l-.095.016h-.11l-.095.016-.11.016-.095.016-.095.016-.079.016-.079.016-.063.016-.063.016-.047.032-.032.016.221-.772.079-.032.063-.032.079-.016.079-.016.079-.016.079-.016.095-.016h.173l.095-.016h.5l.11.016h.095l.095.016.095.016.11.032.095.047.095.032.095.063.095.063.079.063.079.079.063.095.047.095.032.095.016.11v.126l-.016.126-.331,1.686Z" transform="translate(2.039 3.07)"/><path class="e" d="M14.776,10.138l-.126.709h-.8l.016-.126.016-.126.016-.079.016-.047h0l-.047.047-.047.047-.063.047-.063.047-.079.047-.079.032-.079.047-.095.032-.095.032-.095.016-.095.016-.095.016h-.095l-.079.016-.095-.016-.095-.016h0l-.11-.032-.095-.032-.095-.032-.079-.047-.063-.063-.063-.047-.063-.063L12,10.5l-.032-.063-.032-.079-.032-.063-.016-.079-.016-.063v-.079L11.86,10V9.933h0l.016-.126.016-.11.032-.126.047-.095.047-.11.063-.095.063-.095.079-.079.079-.063.095-.079.079-.047.11-.063L12.68,8.8l.11-.032.11-.032.11-.016h.079l.032-.016h.095l.063-.016h.047l.063-.016h.158l.047-.016h.221l.079.016h.2l.016-.016.016-.063.016-.063V8.467h0V8.389l-.032-.063-.047-.047-.047-.047-.063-.047-.063-.032-.079-.016h-.079l-.095-.016h-.3l-.095.016h-.11l-.095.016-.11.016-.095.016-.095.016-.079.016-.079.016-.063.016-.063.016-.047.032-.032.016.221-.772h0l.079-.032.063-.032.079-.016.079-.016.079-.016.079-.016.095-.016h.173l.095-.016h.5l.11.016h.095l.095.016.095.016.11.032.095.047.095.032.095.063.095.063.079.063.079.079.063.095.047.095.032.095.016.11v.126l-.016.126-.331,1.686" transform="translate(2.039 3.07)"/><path class="c" d="M13.641,8.617V8.6l-.016-.016h-.016l-.032-.016h-.284l-.047.016h-.095L13.1,8.6l-.032.016h-.047l-.016.016h-.032l-.032.016-.032.016-.047.016-.032.032-.047.016-.047.032-.047.032-.032.032-.047.032-.032.047-.032.032-.032.047-.016.047V9.09l-.016.11.016.079.032.063.047.047.047.032.063.016.047.016h.142l.095-.016h.079l.079-.032L13.2,9.39l.063-.032.047-.032.047-.032.047-.032.032-.032.032-.047.032-.032.016-.047.016-.032.016-.032.016-.032.032-.095.016-.11.016-.11.016-.079Z" transform="translate(2.402 3.756)"/><path class="d" d="M9.757,11.112H8.89L9.615,6.92h1.513l.142,2.49,1.04-2.49H13.9l-.741,4.192h-.883l.552-3.136H12.8l-1.308,3.136h-.977v-.126l-.032-.347-.032-.5-.032-.567L10.387,9l-.016-.5-.032-.362V7.976h-.047l-.536,3.136Z" transform="translate(0.328 2.805)"/><path class="e" d="M9.757,11.112H8.89L9.615,6.92h1.513l.142,2.49,1.04-2.49H13.9l-.741,4.192h-.883l.552-3.136H12.8l-1.308,3.136h-.977v-.126l-.032-.347-.032-.5-.032-.567L10.387,9l-.016-.5-.032-.362V7.976h-.047l-.536,3.136" transform="translate(0.328 2.805)"/><path class="d" d="M24.85,10.138l-.126.709h-.8v-.331l.016-.032-.047.047-.047.047-.047.047-.079.032-.063.047-.079.047-.079.032-.079.032-.079.032-.095.016-.095.016-.079.016h-.095l-.095.016-.079-.016-.095-.016-.11-.032-.11-.032-.079-.032-.095-.047-.063-.063-.063-.047-.047-.063-.047-.063-.047-.063-.016-.079L22,10.3l-.016-.079-.016-.063v-.079L21.95,10V9.933l.016-.126.016-.11.032-.126.032-.095.047-.11.063-.095.063-.095L22.3,9.1l.079-.063.095-.079.095-.047.095-.063.095-.047.11-.032.11-.032.11-.016h.063L23.2,8.7h.095l.047-.016H23.4l.047-.016h.173l.032-.016h.236l.079.016h.221V8.657l.016-.063.016-.063V8.467L24.2,8.389l-.016-.063-.047-.047-.047-.047-.063-.047-.063-.032L23.9,8.137h-.079l-.095-.016h-.3l-.11.016h-.095l-.11.016-.095.016-.095.016-.095.016-.079.016-.079.016-.063.016-.063.016-.047.032-.032.016.221-.772.079-.032.063-.032.079-.016.079-.016.079-.016.079-.016.079-.016H23.4l.095-.016H24l.11.016H24.2l.095.016.095.016.11.032.095.047.095.032.095.063.095.063.079.063.079.079L25.1,7.9l.047.095.032.095.016.11v.126l-.016.126-.331,1.686Z" transform="translate(7.852 3.07)"/><path class="d" d="M23.716,9.871l.016-.032.126-.709h-.032l-.126.709.016-.016v.047l.016-.016V9.839l-.016.032Z" transform="translate(8.86 4.079)"/><path class="d" d="M23.2,9.586l.016.032h.8V9.57h-.8l.016.016H23.2l-.016.032h.032L23.2,9.586Z" transform="translate(8.56 4.332)"/><path class="d" d="M23.237,9.372l-.032-.032-.016.047v.331h.032V9.592l.016-.11v-.11l-.032-.032.032.032Z" transform="translate(8.566 4.2)"/><path class="d" d="M22.43,9.766h0l.095.016L22.6,9.8H22.7l.095-.016.079-.016.095-.016.095-.016.095-.032.079-.032.079-.032.079-.047.063-.047.063-.032.063-.047.047-.047.047-.047-.032-.032-.047.047-.047.047-.047.047-.063.032-.063.047-.079.032-.079.047-.079.032-.095.016-.079.032-.095.016-.079.016h-.268l-.095-.016h0v.032Z" transform="translate(8.128 4.2)"/><path class="d" d="M21.94,9h0v.142l.016.079.016.063.016.079L22,9.441l.032.063.047.079.047.063.047.063.063.047.079.063.079.047.095.047.11.032.11.016V9.93L22.6,9.9l-.095-.032-.095-.032-.079-.047-.063-.063-.063-.047-.047-.063-.047-.063-.032-.063-.032-.063-.032-.063L22,9.284,21.987,9.2V9.142l-.016-.079L21.987,9H21.94Z" transform="translate(7.846 4.004)"/><path class="d" d="M23.091,8.22h0l-.11.016-.11.032-.11.032-.11.047-.095.047-.095.063-.079.079-.095.079-.079.079-.063.079-.063.095-.047.11-.047.11-.016.11-.032.126v.126h.047V9.323L22,9.213l.032-.11.032-.11.047-.095.063-.095.063-.095.079-.079.079-.063.095-.079.079-.047.11-.047.095-.047L22.87,8.3l.11-.016.11-.032h0V8.22Z" transform="translate(7.846 3.554)"/><path class="d" d="M23.316,8.18h-.11l-.063.016h-.11l-.047.016h-.11l-.047.016h-.095l-.032.016H22.67v.032h.063l.047-.016h.095l.047-.016h.11l.063-.016h.221V8.18Z" transform="translate(8.267 3.531)"/><path class="d" d="M23.521,8.212l.016-.016h-.095l-.063-.016h-.3v.047h.457l.016-.016-.016.016.016.016V8.212Z" transform="translate(8.503 3.531)"/><path class="d" d="M23.392,8.07h0l-.016.063V8.2l-.016.063v.016h.032l.016-.016V8.2l.016-.063.016-.063h-.047Z" transform="translate(8.664 3.468)"/><path class="d" d="M23.14,7.887H23.2l.079.016.063.032.047.047.047.047.032.047.032.063.016.063h.032V8.124l-.032-.063L23.471,8l-.047-.047L23.361,7.9l-.079-.032-.063-.016L23.14,7.84h0v.047Z" transform="translate(8.537 3.335)"/><path class="d" d="M22.27,8.045l.032.016.032-.016.032-.032L22.428,8l.063-.016.079-.016.079-.016.095-.016.095-.016.095-.016h.11l.095-.016h.5V7.84h-.394l-.11.016h-.095l-.11.016-.095.016h-.095l-.095.016-.079.016-.079.032-.079.016-.047.016L22.3,8l-.032.032.032.016Z" transform="translate(8.036 3.335)"/><path class="d" d="M22.506,7.47l-.016.016-.221.772H22.3l.221-.772-.016.016V7.47h-.016v.016l.016-.016Z" transform="translate(8.036 3.122)"/><path class="d" d="M23.838,7.37h-.709l-.079.016h-.095l-.079.016-.079.016-.079.016-.079.016-.079.016-.079.032-.063.032v.032l.079-.032.079-.016.063-.032.079-.016.079-.016.079-.016h.079l.095-.016h.788V7.37Z" transform="translate(8.123 3.065)"/><path class="d" d="M24.423,8.457h0l.016-.126V8.205l-.032-.11-.032-.11-.047-.095L24.266,7.8l-.079-.079-.079-.063-.095-.063-.095-.063-.11-.047-.095-.032-.11-.032L23.509,7.4l-.095-.016L23.32,7.37v.047h.095l.095.016.095.032.095.016.095.047.11.047L24,7.622l.079.063.079.063.079.079.063.079L24.344,8l.032.095.016.11v.126l-.016.126h.047Z" transform="translate(8.641 3.065)"/><path class="d" d="M23.812,9.746h0l.347-1.686h-.047L23.78,9.746h.032Z" transform="translate(8.906 3.462)"/><path class="b" d="M23.715,8.623V8.607L23.7,8.592l-.032-.016H23.6l-.047-.016H23.51l-.047.016h-.095l-.047.016h-.047l-.047.016h-.047l-.047.016h-.047l-.032.016-.032.016H22.99l-.047.032-.032.016-.047.016-.047.032-.032.032-.047.032-.032.032-.032.047-.032.047-.032.047-.016.047L22.58,9.1v.11l.016.079.032.063.032.047.047.032.063.016.047.016h.158l.095-.016.079-.016.079-.016.063-.032.063-.032.047-.032.063-.032.047-.032.032-.047.032-.032.032-.047L23.62,9.1l.032-.047V9.017l.016-.032.016-.095L23.7,8.8l.016-.095V8.623Z" transform="translate(8.215 3.75)"/><path class="d" d="M27.48,9.456l.016-.063.016-.095.047-.079.063-.063.063-.047.079-.047.079-.016.095-.016.079.016.095.016.079.047.063.047.047.063.047.079.032.095v.063h-.095V9.408l-.016-.079-.032-.063-.047-.047-.047-.047-.063-.032L28,9.109h-.142L27.8,9.14l-.063.032-.063.047-.032.047-.032.063-.016.079-.016.047Z" transform="translate(11.037 4.021)"/><path class="d" d="M27.67,9.369V9.18h.2l.032.016h.032l.016.016.016.016.016.032L28,9.275v.047l-.016.032v.016h-.095l.016-.016h.016V9.338l.016-.016V9.29l-.016-.016V9.259h-.173v.11Z" transform="translate(11.147 4.107)"/><path class="d" d="M27.48,9.3v.032l.016.095.016.079.047.079.063.063.063.047.079.047.079.032h.173l.095-.032.079-.047.063-.047.047-.063.047-.079.032-.079V9.3h-.095v.11l-.016.063-.032.063-.047.047-.047.047-.063.032L28,9.694h-.142L27.8,9.662l-.063-.032-.063-.047-.032-.047-.032-.063L27.59,9.41l-.016-.079V9.3Z" transform="translate(11.037 4.177)"/><path class="d" d="M27.67,9.3v.2h.079V9.347h.079l.095.158h.063l-.095-.158h.016l.032-.016h.016l.016-.016V9.3h-.126l-.016.016h-.079V9.3Z" transform="translate(11.147 4.177)"/><path class="d" d="M23.94,10.842h.914l.315-1.812.016-.079.016-.063.016-.079.032-.063.032-.079.032-.063.047-.063.047-.063.063-.047.063-.063.079-.047.079-.032.095-.032.095-.032L26,8.21h.2l.142-.82h-.095l-.095.016-.079.016-.063.016-.079.032-.063.032-.063.032-.063.032-.063.047-.047.047-.047.047-.063.047-.047.063-.047.063-.047.047L25.343,8l.095-.583h-.9l-.6,3.42Z" transform="translate(8.998 3.076)"/><path class="e" d="M23.94,10.842h.914l.315-1.812h0l.016-.079.016-.063.016-.079.032-.063.032-.079.032-.063.047-.063.047-.063.063-.047.063-.063.079-.047.079-.032.095-.032.095-.032L26,8.21h.2l.142-.82h-.095l-.095.016-.079.016-.063.016-.079.032-.063.032-.063.032-.063.032-.063.047-.047.047-.047.047-.063.047-.047.063-.047.063-.047.047L25.343,8l.095-.583h-.9l-.6,3.42h0" transform="translate(8.998 3.076)"/><path class="d" d="M18.57,10.842h.914l.3-1.812L19.8,8.95l.016-.063.016-.063.032-.063.016-.063.032-.063.047-.063L20,8.525l.047-.047.063-.047.063-.047.079-.032.095-.032.095-.032.11-.016h.189l.016.016h.016V8.273l.016-.032V8.178l.016-.079.032-.079.016-.095.032-.079.032-.095.032-.063.032-.063.032-.047.032-.063.016-.047.032-.032.016-.032h0l-.016-.016h-.221l-.095.016-.079.016-.079.016-.079.016-.063.032-.063.032-.063.047-.047.047-.047.047-.047.047-.047.047-.047.063-.047.047-.047.063L19.973,8l.11-.583h-.914l-.6,3.42Z" transform="translate(5.905 3.076)"/><path class="e" d="M18.57,10.842h.914l.3-1.812h0L19.8,8.95l.016-.063.016-.063.032-.063.016-.063.032-.063.047-.063L20,8.525l.047-.047.063-.047.063-.047.079-.032.095-.032.095-.032.11-.016h.189l.016.016h.016V8.273l.016-.032V8.178l.016-.079.032-.079.016-.095.032-.079.032-.095h0l.032-.063.032-.063.032-.047.032-.063.016-.047.032-.032.016-.032h0l-.016-.016h-.221l-.095.016-.079.016-.079.016-.079.016-.063.032-.063.032-.063.047-.047.047-.047.047-.047.047-.047.047-.047.063-.047.047-.047.063L19.973,8l.11-.583h-.914l-.6,3.42h0" transform="translate(5.905 3.076)"/></g></g></svg>