<svg xmlns="http://www.w3.org/2000/svg" width="56" height="34" viewBox="0 0 56 34">
  <g id="Group_6269" data-name="Group 6269" transform="translate(15986 132)">
    <rect id="Rectangle_1234" data-name="Rectangle 1234" width="56" height="34" rx="5" transform="translate(-15986 -132)" fill="#fff"/>
    <g id="icons8-paytm" transform="translate(-15978 -136.986)">
      <path id="Path_3350" data-name="Path 3350" d="M4.652,18.009H.468a.4.4,0,0,0-.43.429L0,28.693a.36.36,0,0,0,.4.384H2.165c.218,0,.4-.107.4-.32v-3.07l1.816.008a2.35,2.35,0,0,0,2.328-1.753,3.2,3.2,0,0,0,.12-.971l.094-2.445A2.327,2.327,0,0,0,4.652,18.009Zm-.385,4.66a.458.458,0,0,1-.456.457H2.563V20.563H3.81a.458.458,0,0,1,.456.457ZM11.905,18H8.982c-.222,0-.413.068-.413.3v1.88a.4.4,0,0,0,.444.383h2.439c.507,0,.454.83,0,.854H10.113A2.549,2.549,0,0,0,7.688,24.1c0,.359,0,1.2,0,1.591a7.513,7.513,0,0,0,.1,1.622A2.214,2.214,0,0,0,9.906,29.1h3.611a1.023,1.023,0,0,0,1-.94V21.1C14.543,19.233,13.617,18.1,11.905,18Zm.053,8.157a.385.385,0,0,1-.383.384h-.944a.384.384,0,0,1-.382-.384V24.363a.384.384,0,0,1,.382-.384h.944a.384.384,0,0,1,.383.384Zm3.417-7.65V23.3a2.711,2.711,0,0,0,2.709,2.39h1.208c.51,0,.479.828,0,.828H16.648c-.29,0-.395.151-.395.407V28.76a.343.343,0,0,0,.36.338h2.527c2.064,0,3.068-.99,3.067-3.209V18.338a.29.29,0,0,0-.292-.327H19.95c-.191,0-.3.208-.3.36v4.457a.239.239,0,0,1-.248.27H18.288a.311.311,0,0,1-.349-.338V18.44c0-.254-.1-.44-.384-.44h-1.9c-.226,0-.284.225-.284.507Z" transform="translate(0 -0.294)" fill="#052d72"/>
      <path id="Path_3351" data-name="Path 3351" d="M27.038,19.9V18.074a.369.369,0,0,1,.367-.368h.454a3.525,3.525,0,0,0,2.3-1.3c.439-.476.825-.6,1.109-.1l.012,1.4h1.34a.369.369,0,0,1,.368.368V19.9a.37.37,0,0,1-.368.368h-1.34v8.174a.369.369,0,0,1-.367.368H29.081a.368.368,0,0,1-.367-.368V20.269H27.406a.37.37,0,0,1-.368-.368Zm13.627,8.453a.461.461,0,0,1-.46.457H38.573a.461.461,0,0,1-.461-.457V21.1a.856.856,0,0,0-1.71,0v7.255a.46.46,0,0,1-.46.457H34.3a.461.461,0,0,1-.461-.457V18.165a.461.461,0,0,1,.461-.459h1.688a.46.46,0,0,1,.46.459v.249a2.646,2.646,0,0,1,3.772.195c1.791-2.054,4.86-.224,4.718,2.029,0,2.491-.022,5.2-.022,7.716a.461.461,0,0,1-.46.457H42.841a.46.46,0,0,1-.46-.457V21.144a.854.854,0,1,0-1.708,0v7.209Z" transform="translate(-3.943)" fill="#01baf2"/>
    </g>
  </g>
</svg>
