<svg xmlns="http://www.w3.org/2000/svg" width="16" height="22.756" viewBox="0 0 16 22.756"><defs><style>.a{fill:#fcae2a;}.b{fill:#f39b04;}</style></defs><g transform="translate(-76)"><path class="a" d="M84,0a8.006,8.006,0,0,0-8,8,7.889,7.889,0,0,0,1.2,4.2l6.258,10.241a.632.632,0,0,0,.453.307.664.664,0,0,0,.68-.32l6.276-10.334A7.89,7.89,0,0,0,92,8,8.006,8.006,0,0,0,84,0Zm0,12a4,4,0,1,1,4-4A3.995,3.995,0,0,1,84,12Z"/><path class="b" d="M256,0V4a4,4,0,0,1,0,8V22.755a.66.66,0,0,0,.591-.328l6.276-10.334A7.89,7.89,0,0,0,264,8,8.006,8.006,0,0,0,256,0Z" transform="translate(-172)"/></g></svg>