<svg xmlns="http://www.w3.org/2000/svg" xmlns:xlink="http://www.w3.org/1999/xlink" width="178.2" height="52.8" viewBox="0 0 178.2 52.8"><defs><style>.a,.i,.j{fill:#333;}.b{fill:#a6a6a6;}.c,.d,.k{fill:#fff;}.c{stroke:#fff;stroke-miterlimit:10;stroke-width:0.2px;}.e{fill:url(#a);}.f{fill:url(#b);}.g{fill:url(#c);}.h{fill:url(#d);}.i{opacity:0.2;}.j{opacity:0.12;}.k{opacity:0.25;}</style><linearGradient id="a" x1="0.908" y1="1.01" x2="-0.383" y2="0.339" gradientUnits="objectBoundingBox"><stop offset="0" stop-color="#00a0ff"/><stop offset="0.007" stop-color="#00a1ff"/><stop offset="0.26" stop-color="#00beff"/><stop offset="0.512" stop-color="#00d2ff"/><stop offset="0.76" stop-color="#00dfff"/><stop offset="1" stop-color="#00e3ff"/></linearGradient><linearGradient id="b" x1="1.077" y1="0.679" x2="-1.307" y2="0.679" gradientUnits="objectBoundingBox"><stop offset="0" stop-color="#ffe000"/><stop offset="0.409" stop-color="#ffbd00"/><stop offset="0.775" stop-color="orange"/><stop offset="1" stop-color="#ff9c00"/></linearGradient><linearGradient id="c" x1="0.864" y1="-0.065" x2="-0.499" y2="-1.844" gradientUnits="objectBoundingBox"><stop offset="0" stop-color="#ff3a44"/><stop offset="1" stop-color="#c31162"/></linearGradient><linearGradient id="d" x1="-0.186" y1="2.647" x2="0.423" y2="1.861" gradientUnits="objectBoundingBox"><stop offset="0" stop-color="#32a071"/><stop offset="0.068" stop-color="#2da771"/><stop offset="0.476" stop-color="#15cf74"/><stop offset="0.801" stop-color="#06e775"/><stop offset="1" stop-color="#00f076"/></linearGradient></defs><g transform="translate(-55 -0.2)"><g transform="translate(55 0.2)"><path class="a" d="M226.6,53H61.6A6.619,6.619,0,0,1,55,46.4V6.8A6.619,6.619,0,0,1,61.6.2h165a6.619,6.619,0,0,1,6.6,6.6V46.4A6.536,6.536,0,0,1,226.6,53Z" transform="translate(-55 -0.2)"/></g><g transform="translate(55 0.2)"><path class="b" d="M226.6,1.256A5.577,5.577,0,0,1,232.144,6.8V46.4a5.577,5.577,0,0,1-5.544,5.544H61.6A5.577,5.577,0,0,1,56.056,46.4V6.8A5.577,5.577,0,0,1,61.6,1.256h165M226.6.2H61.6A6.619,6.619,0,0,0,55,6.8V46.4A6.619,6.619,0,0,0,61.6,53h165a6.619,6.619,0,0,0,6.6-6.6V6.8A6.619,6.619,0,0,0,226.6.2Z" transform="translate(-55 -0.2)"/></g><g transform="translate(109.648 9.44)"><path class="c" d="M104.32,11.556a3.6,3.6,0,0,1-.924,2.64,4.092,4.092,0,0,1-7-2.9A4.057,4.057,0,0,1,100.492,7.2a3.515,3.515,0,0,1,1.584.4,2.875,2.875,0,0,1,1.188.924l-.66.66a2.462,2.462,0,0,0-2.112-.924,2.626,2.626,0,0,0-2.112.924,2.719,2.719,0,0,0-.924,2.244,2.719,2.719,0,0,0,.924,2.244,3.4,3.4,0,0,0,2.112.924,2.9,2.9,0,0,0,2.244-.924,2.186,2.186,0,0,0,.66-1.584h-2.9V10.9h3.828Z" transform="translate(-96.4 -7.2)"/><path class="c" d="M108.12,8.256h-3.564v2.508h3.3v.924h-3.3V14.2h3.564v.924H103.5V7.2h4.62Z" transform="translate(-94.128 -7.2)"/><path class="c" d="M111.1,15.12h-1.056V8.256H107.8V7.2h5.412V8.256h-2.244V15.12Z" transform="translate(-92.752 -7.2)"/><path class="c" d="M114.9,15.12V7.2h1.056v7.92Z" transform="translate(-90.48 -7.2)"/><path class="c" d="M119.9,15.12h-1.056V8.256H116.6V7.2h5.412V8.256h-2.244V15.12Z" transform="translate(-89.936 -7.2)"/><path class="c" d="M130.3,14.2a4.092,4.092,0,0,1-7-2.9,4.092,4.092,0,1,1,8.184,0A4.1,4.1,0,0,1,130.3,14.2Zm-5.016-.66a3.115,3.115,0,0,0,2.112.924,2.626,2.626,0,0,0,2.112-.924,3.185,3.185,0,0,0,.924-2.244,2.719,2.719,0,0,0-.924-2.244,3.115,3.115,0,0,0-2.112-.924,2.626,2.626,0,0,0-2.112.924,3.185,3.185,0,0,0-.924,2.244A3.091,3.091,0,0,0,125.28,13.536Z" transform="translate(-87.792 -7.2)"/><path class="c" d="M130.6,15.12V7.2h1.188l3.828,6.2h0V7.2h1.056v7.92h-1.056l-4.092-6.468h0V15.12Z" transform="translate(-85.456 -7.2)"/></g><path class="d" d="M131.74,23.5a5.553,5.553,0,0,0-5.676,5.676,5.634,5.634,0,0,0,5.676,5.676,5.676,5.676,0,1,0,0-11.352Zm0,8.976a3.277,3.277,0,0,1-3.168-3.432,3.277,3.277,0,0,1,3.168-3.432,3.2,3.2,0,0,1,3.168,3.432A3.2,3.2,0,0,1,131.74,32.48ZM119.464,23.5a5.553,5.553,0,0,0-5.676,5.676,5.634,5.634,0,0,0,5.676,5.676,5.676,5.676,0,1,0,0-11.352Zm0,8.976a3.277,3.277,0,0,1-3.168-3.432,3.277,3.277,0,0,1,3.168-3.432,3.2,3.2,0,0,1,3.168,3.432A3.2,3.2,0,0,1,119.464,32.48Zm-14.652-7.26V27.6h5.676a4.991,4.991,0,0,1-1.32,3.036,5.843,5.843,0,0,1-4.356,1.716,6.146,6.146,0,0,1-6.2-6.336,6.227,6.227,0,0,1,6.2-6.336,6.545,6.545,0,0,1,4.356,1.716l1.716-1.716a8.459,8.459,0,0,0-5.94-2.376A8.9,8.9,0,0,0,96.1,26.012a8.9,8.9,0,0,0,8.844,8.712,7.6,7.6,0,0,0,6.072-2.508,7.946,7.946,0,0,0,2.112-5.544A4.949,4.949,0,0,0,113,25.22h-8.184Zm59.928,1.848a5.129,5.129,0,0,0-4.752-3.564,5.316,5.316,0,0,0-5.28,5.676,5.524,5.524,0,0,0,5.544,5.676,5.415,5.415,0,0,0,4.62-2.508l-1.848-1.32a3.218,3.218,0,0,1-2.772,1.584A2.864,2.864,0,0,1,157.48,30.9L165,27.728Zm-7.656,1.848a3.207,3.207,0,0,1,2.9-3.3A2.335,2.335,0,0,1,162.1,26.8Zm-6.2,5.412h2.508v-16.5H150.88Zm-3.96-9.636h0a4.346,4.346,0,0,0-3.036-1.32,5.672,5.672,0,0,0-5.412,5.676,5.466,5.466,0,0,0,5.412,5.544,3.79,3.79,0,0,0,2.9-1.32h.132v.792c0,2.112-1.188,3.3-3.036,3.3a2.933,2.933,0,0,1-2.772-1.98L139,36.308a5.446,5.446,0,0,0,5.016,3.3c2.9,0,5.28-1.716,5.28-5.808V23.768H146.92v.924Zm-2.9,7.788a3.277,3.277,0,0,1-3.168-3.432,3.277,3.277,0,0,1,3.168-3.432,3.176,3.176,0,0,1,3.036,3.432A3.176,3.176,0,0,1,144.016,32.48Zm32.208-14.652h-5.94v16.5h2.508v-6.2h3.432a5.154,5.154,0,1,0,0-10.3Zm.132,8.052h-3.564V20.2h3.564a2.9,2.9,0,0,1,2.9,2.772A3.121,3.121,0,0,1,176.356,25.88Zm15.18-2.376a4.437,4.437,0,0,0-4.356,2.508l2.244.924a2.332,2.332,0,0,1,2.244-1.188,2.481,2.481,0,0,1,2.64,2.112v.132a5.236,5.236,0,0,0-2.508-.66c-2.376,0-4.752,1.32-4.752,3.7a3.867,3.867,0,0,0,4.092,3.7,3.715,3.715,0,0,0,3.168-1.584h.132v1.32h2.376V28.124C196.552,25.088,194.308,23.5,191.536,23.5Zm-.264,8.976c-.792,0-1.98-.4-1.98-1.452,0-1.32,1.452-1.716,2.64-1.716a5.1,5.1,0,0,1,2.244.528A3.074,3.074,0,0,1,191.272,32.48Zm13.86-8.712L202.36,30.9h-.132l-2.9-7.128h-2.64L201.04,33.8l-2.508,5.544h2.508l6.732-15.576Zm-22.176,10.56h2.508v-16.5h-2.508Z" transform="translate(13.152 5.472)"/><g transform="translate(68.068 9.661)"><path class="e" d="M65.528,7.8A2.581,2.581,0,0,0,65,9.648V38.82a2.611,2.611,0,0,0,.66,1.848l.132.132L82.16,24.432v-.264L65.528,7.8Z" transform="translate(-64.868 -7.229)"/><path class="f" d="M83.312,27.22,77.9,21.808v-.264L83.312,16l.132.132,6.468,3.7c1.848,1.056,1.848,2.772,0,3.828l-6.6,3.564Z" transform="translate(-60.74 -4.605)"/><path class="g" d="M87.444,25.844,81.9,20.3,65.4,36.668c.66.66,1.584.66,2.772.132L87.444,25.844" transform="translate(-64.74 -3.229)"/><path class="h" d="M87.444,18.761,68.172,7.805a2.14,2.14,0,0,0-2.772.132l16.5,16.5Z" transform="translate(-64.74 -7.366)"/><g transform="translate(0 22.483)"><path class="i" d="M87.312,24.4,68.172,35.224a2.159,2.159,0,0,1-2.64,0h0l-.132.132h0l.132.132h0a2.159,2.159,0,0,0,2.64,0L87.312,24.4Z" transform="translate(-64.74 -24.4)"/><path class="j" d="M65.56,32.948A2.611,2.611,0,0,1,64.9,31.1v.132a2.611,2.611,0,0,0,.66,1.848v-.132Z" transform="translate(-64.9 -22.256)"/></g><path class="j" d="M88.6,21.916l-6.6,3.7.132.132,6.468-3.7A2.194,2.194,0,0,0,89.92,20.2h0A2.113,2.113,0,0,1,88.6,21.916Z" transform="translate(-59.428 -3.261)"/><path class="k" d="M68.3,8.07,94.04,22.59c.792.528,1.32,1.056,1.32,1.716h0a2.194,2.194,0,0,0-1.32-1.848L68.3,7.806C66.452,6.75,65,7.674,65,9.786v.132C65,7.806,66.452,7.014,68.3,8.07Z" transform="translate(-64.868 -7.368)"/></g></g></svg>