<svg xmlns="http://www.w3.org/2000/svg" width="56" height="34" viewBox="0 0 56 34"><defs><style>.a{fill:#fff;}.b{fill:#4995d1;}.c{fill:#6d6e71;font-size:4px;font-family:Montserrat-Medium, Montserrat;font-weight:500;}.d{fill:#faa542;}</style></defs><g transform="translate(-2764 -6237)"><rect class="a" width="56" height="34" rx="5" transform="translate(2764 6237)"/><g transform="translate(2765 6244.25)"><path class="b" d="M26.63,6.142V4.288A1.445,1.445,0,0,0,25.319,2.75H8.311A1.429,1.429,0,0,0,7,4.288V6.154H26.63Z"/><path class="b" d="M7,7.12v6.367a1.445,1.445,0,0,0,1.311,1.538h17a1.445,1.445,0,0,0,1.311-1.538V7.12Z" transform="translate(0 1.14)"/><g transform="translate(8.109 9.205)"><rect class="a" width="7.552" height="1.097"/><rect class="a" width="7.552" height="1.097" transform="translate(0 1.45)"/><rect class="a" width="4.123" height="1.097" transform="translate(0 2.887)"/></g><text class="c" transform="translate(28.498 8.014)"><tspan x="0" y="0">Secure</tspan><tspan x="0" y="4">Payment</tspan></text><circle class="a" cx="3.467" cy="3.467" r="3.467" transform="translate(19.154 8.865)"/><path class="d" d="M21.617,10.492h-.126V9.824a1.665,1.665,0,0,0-3.328,0v.656h-.126a.172.172,0,0,0-.177.177V13.2a.172.172,0,0,0,.177.177h3.581a.172.172,0,0,0,.177-.177V10.656A.17.17,0,0,0,21.617,10.492Zm-1.551,1.349V12.5a.24.24,0,0,1-.479,0v-.656a.371.371,0,0,1-.164-.3.382.382,0,0,1,.391-.378.39.39,0,0,1,.391.378A.3.3,0,0,1,20.066,11.841Zm.92-1.349h-2.32V9.824a1.161,1.161,0,0,1,2.32,0Z" transform="translate(2.832 1.424)"/></g></g></svg>