<svg xmlns="http://www.w3.org/2000/svg" width="36" height="36" viewBox="0 0 36 36"><defs><style>.a{fill:#333;}</style></defs><path class="a" d="M18,0A18,18,0,1,0,36,18,18,18,0,0,0,18,0Zm8.219,14.035q.012.266.012.534A11.675,11.675,0,0,1,14.475,26.324h0a11.7,11.7,0,0,1-6.333-1.856,8.4,8.4,0,0,0,.985.057,8.29,8.29,0,0,0,5.131-1.769,4.136,4.136,0,0,1-3.86-2.87,4.118,4.118,0,0,0,1.866-.071,4.133,4.133,0,0,1-3.315-4.05c0-.019,0-.035,0-.053a4.1,4.1,0,0,0,1.871.517,4.135,4.135,0,0,1-1.279-5.516,11.73,11.73,0,0,0,8.516,4.317,4.134,4.134,0,0,1,7.04-3.768,8.287,8.287,0,0,0,2.624-1,4.148,4.148,0,0,1-1.817,2.285,8.24,8.24,0,0,0,2.372-.651,8.4,8.4,0,0,1-2.061,2.14Zm0,0"/></svg>