<svg xmlns="http://www.w3.org/2000/svg" width="56" height="34" viewBox="0 0 56 34"><defs><style>.a{fill:#fff;}.b{fill:#3e3e3d;}.c{fill:#71716f;}.d{fill:#0f8041;}.e{fill:#e97726;}</style></defs><g transform="translate(-2764 -6237)"><rect class="a" width="56" height="34" rx="5" transform="translate(2764 6237)"/><g transform="translate(2767.533 6243.84)"><g transform="translate(4.467 3.16)"><g transform="translate(0 12.08)"><path class="b" d="M4.8,11.6h.289l-.274,1.155a.485.485,0,0,0,.029.39.348.348,0,0,0,.318.13.54.54,0,0,0,.375-.13.729.729,0,0,0,.216-.39L6.03,11.59h.3l-.289,1.2a.994.994,0,0,1-.332.577.943.943,0,0,1-.621.2.632.632,0,0,1-.534-.188A.676.676,0,0,1,4.5,12.8Z" transform="translate(-4.467 -11.503)"/><path class="b" d="M5.73,13.542l.476-1.992.909,1.169c.029.029.043.072.072.1s.043.087.072.13l.318-1.328h.274l-.476,1.992-.924-1.2c-.029-.029-.043-.072-.072-.1s-.029-.072-.043-.115l-.318,1.328-.289.014Z" transform="translate(-3.907 -11.521)"/><path class="b" d="M7.19,13.519,7.652,11.6h.3l-.462,1.919Z" transform="translate(-3.26 -11.499)"/><path class="b" d="M7.7,13.519,8.162,11.6H9.2l-.058.26H8.407l-.115.476h.736l-.058.274H8.22L8,13.505l-.3.014Z" transform="translate(-3.034 -11.499)"/><path class="b" d="M8.66,13.519,9.122,11.6h.3l-.462,1.919Z" transform="translate(-2.608 -11.499)"/><path class="b" d="M9.17,13.519,9.632,11.6h1.039l-.058.274H9.877l-.115.476H10.5l-.072.274H9.69l-.144.621h.736l-.058.274Z" transform="translate(-2.382 -11.499)"/><path class="b" d="M10.14,13.519,10.6,11.6h.4a2.342,2.342,0,0,1,.548.043.577.577,0,0,1,.26.144.688.688,0,0,1,.173.318.965.965,0,0,1-.029.447,1.393,1.393,0,0,1-.188.447,1.108,1.108,0,0,1-.318.318.9.9,0,0,1-.318.144,2.109,2.109,0,0,1-.491.043h-.087l-.419.014Zm.375-.289h.26a1.58,1.58,0,0,0,.318-.029.533.533,0,0,0,.2-.1.826.826,0,0,0,.216-.231,1.048,1.048,0,0,0,.13-.318.839.839,0,0,0,.029-.318.423.423,0,0,0-.1-.231.5.5,0,0,0-.173-.1,1.752,1.752,0,0,0-.332-.029h-.231Z" transform="translate(-1.952 -11.499)"/><path class="b" d="M12.521,12.654l-.2.866H12.03l.462-1.919h.462a1.167,1.167,0,0,1,.289.029.31.31,0,0,1,.245.26.482.482,0,0,1-.014.245,1.025,1.025,0,0,1-.115.26.772.772,0,0,1-.188.188.725.725,0,0,1-.188.072,1.531,1.531,0,0,1-.3.029h-.058l-.1-.029Zm.087-.26h.072a.644.644,0,0,0,.346-.058.255.255,0,0,0,.13-.2q.043-.152-.043-.216a.559.559,0,0,0-.318-.058h-.072Z" transform="translate(-1.114 -11.499)"/><path class="b" d="M14.211,13.542l-.1-.491h-.75l-.332.491H12.71L14.1,11.55l.433,1.992Zm-.649-.765h.52l-.087-.433c0-.029-.014-.058-.014-.1v-.115a.857.857,0,0,1-.058.115.627.627,0,0,1-.058.1Z" transform="translate(-0.813 -11.521)"/><path class="b" d="M14.329,13.519l.216-.88L14.17,11.6h.318l.245.649a.625.625,0,0,1,.014.072c.014.029.014.058.029.087.014-.029.043-.058.058-.087a.315.315,0,0,1,.058-.072l.563-.649h.3l-.895,1.039-.216.88Z" transform="translate(-0.166 -11.499)"/><path class="b" d="M16.888,12.6a.634.634,0,0,1,.014-.13c0-.058.014-.1.014-.144-.014.043-.043.087-.058.13l-.087.13-.736,1.025-.245-1.039c-.014-.043-.014-.087-.029-.13s-.014-.087-.014-.115l-.043.13a1,1,0,0,1-.058.144l-.433.938H14.94l.924-2.006.26,1.212a.814.814,0,0,1,.014.1,1.066,1.066,0,0,0,.029.173,2.117,2.117,0,0,1,.13-.216c.014-.029.029-.043.029-.058l.823-1.212-.029,2.006h-.274Z" transform="translate(0.175 -11.53)"/><path class="b" d="M16.64,13.519,17.1,11.6h1.039l-.058.274h-.736l-.115.476h.736l-.072.274H17.16l-.144.621h.736l-.072.274H16.64Z" transform="translate(0.929 -11.499)"/><path class="b" d="M17.6,13.542l.476-1.992.909,1.169c.029.029.043.072.072.1s.043.087.072.13l.318-1.328h.274l-.476,1.992-.924-1.2c-.029-.029-.043-.072-.072-.1a.432.432,0,0,1-.058-.115l-.318,1.328-.274.014Z" transform="translate(1.354 -11.521)"/><path class="b" d="M19.994,11.864l-.39,1.66h-.3l.39-1.66H19.2l.058-.274h1.3l-.058.274Z" transform="translate(2.063 -11.503)"/><path class="b" d="M19.981,13.134l.274-.115a.242.242,0,0,0,.087.2.355.355,0,0,0,.216.072.4.4,0,0,0,.231-.072.312.312,0,0,0,.13-.2c.029-.115-.043-.216-.2-.3-.029-.014-.043-.029-.058-.029a1.087,1.087,0,0,1-.346-.274.427.427,0,0,1-.029-.3.663.663,0,0,1,.245-.375.693.693,0,0,1,.447-.144.566.566,0,0,1,.332.087.31.31,0,0,1,.144.231l-.26.13a.5.5,0,0,0-.087-.13.244.244,0,0,0-.144-.043.354.354,0,0,0-.216.072.287.287,0,0,0-.115.173c-.029.115.058.231.245.318a.045.045,0,0,0,.029.014.761.761,0,0,1,.318.26.458.458,0,0,1,.029.318.729.729,0,0,1-.274.433.83.83,0,0,1-.491.159.54.54,0,0,1-.361-.115A.422.422,0,0,1,19.981,13.134Z" transform="translate(2.408 -11.503)"/><path class="b" d="M21.53,13.519l.462-1.919h.3l-.462,1.919Z" transform="translate(3.096 -11.499)"/><path class="b" d="M22.05,13.542l.476-1.992.909,1.169c.029.029.043.072.072.1s.043.087.072.13l.318-1.328h.274L23.7,13.614l-.924-1.2c-.029-.029-.043-.072-.072-.1a.432.432,0,0,1-.058-.115l-.318,1.328-.274.014Z" transform="translate(3.327 -11.521)"/><path class="b" d="M24.444,11.864l-.39,1.66h-.3l.39-1.66H23.65l.058-.274h1.3l-.058.274Z" transform="translate(4.036 -11.503)"/><path class="b" d="M24.43,13.519l.462-1.919h1.054l-.058.274h-.736l-.115.476h.736l-.087.26H24.95l-.144.621h.736l-.072.274H24.43Z" transform="translate(4.381 -11.499)"/><path class="b" d="M25.881,12.658l-.2.851H25.39l.462-1.919h.419a1.119,1.119,0,0,1,.274.029.285.285,0,0,1,.159.087.326.326,0,0,1,.087.188.482.482,0,0,1-.014.245.679.679,0,0,1-.2.361.636.636,0,0,1-.361.159l.433.866H26.3l-.419-.851h0Zm.072-.245h.058a.617.617,0,0,0,.332-.058.353.353,0,0,0,.13-.2.239.239,0,0,0-.029-.231.456.456,0,0,0-.3-.072h-.058Z" transform="translate(4.807 -11.503)"/><path class="b" d="M26.41,13.519l.462-1.919h1.039l-.058.274h-.736L27,12.35h.736l-.072.274H26.93l-.216.895Z" transform="translate(5.259 -11.499)"/><path class="b" d="M28.611,13.542l-.1-.491h-.75l-.332.491H27.11L28.5,11.55l.433,1.992Zm-.664-.765h.52l-.087-.433c0-.029-.014-.058-.014-.1v-.115a.857.857,0,0,1-.058.115.627.627,0,0,1-.058.1Z" transform="translate(5.569 -11.521)"/><path class="b" d="M30.28,12.08a.88.88,0,0,0-.231-.173.646.646,0,0,0-.289-.058.858.858,0,0,0-.548.2.887.887,0,0,0-.318.52.635.635,0,0,0,.072.52.476.476,0,0,0,.419.2.9.9,0,0,0,.332-.058,1.291,1.291,0,0,0,.332-.188l-.087.346a1.37,1.37,0,0,1-.3.13,1.2,1.2,0,0,1-.318.043.965.965,0,0,1-.375-.072.578.578,0,0,1-.274-.216.621.621,0,0,1-.13-.318.977.977,0,0,1,.029-.4.952.952,0,0,1,.173-.39,1.015,1.015,0,0,1,.289-.318,1.1,1.1,0,0,1,.375-.216,1.252,1.252,0,0,1,.4-.072.959.959,0,0,1,.3.043,1.17,1.17,0,0,1,.26.144Z" transform="translate(6.209 -11.517)"/><path class="b" d="M29.77,13.519l.462-1.919h1.039l-.058.274h-.736l-.115.476H31.1l-.072.274H30.29l-.144.621h.736l-.072.274H29.77Z" transform="translate(6.748 -11.499)"/></g><g transform="translate(1.067)"><path class="c" d="M26.563,13.667H24.47L27.385,3.16h2.093Z" transform="translate(3.332 -3.16)"/><g transform="translate(13.73 0.029)"><path class="c" d="M29.8,3.483a.765.765,0,0,0-.678-.3h-11.5l-.563,2.064H27.521l-.606,2.194H16.452L14.72,13.7h2.093l1.169-4.2h9.41a1.29,1.29,0,0,0,.823-.3,1.326,1.326,0,0,0,.505-.75l1.169-4.2A.855.855,0,0,0,29.8,3.483Z" transform="translate(-14.72 -3.18)"/></g><path class="c" d="M17.71,13a.957.957,0,0,1-.924.707H6.005a.773.773,0,0,1-.664-.3.831.831,0,0,1-.087-.75L7.882,3.17H9.974L7.622,11.656h8.371l2.352-8.472h2.093Z" transform="translate(-5.206 -3.156)"/><g transform="translate(31.641 0.014)"><path class="d" d="M31.335,3.17l2.641,5.268L28.42,13.705Z" transform="translate(-26.558 -3.17)"/><path class="e" d="M30.045,3.17,32.7,8.438,27.13,13.705Z" transform="translate(-27.13 -3.17)"/></g></g></g></g></g></svg>