<svg xmlns="http://www.w3.org/2000/svg" width="56" height="34" viewBox="0 0 56 34">
  <g id="Group_6268" data-name="Group 6268" transform="translate(15986 174)">
    <rect id="Rectangle_1234" data-name="Rectangle 1234" width="56" height="34" rx="5" transform="translate(-15986 -174)" fill="#fff"/>
    <g id="Group_6267" data-name="Group 6267" transform="translate(-143.504 -121.721)">
      <path id="Path_3353" data-name="Path 3353" d="M21.234,122.734a64.325,64.325,0,0,1,40.016-4.02l.183-4.426c-18.411-2.01-31.621,3.854-40.2,8.009v.436Z" transform="translate(-15855.398 -144.628)" fill="#f7aa0f" fill-rule="evenodd"/>
      <path id="Path_3354" data-name="Path 3354" d="M21.655,64.435l4.07-13.419h3.631l-4.07,13.419ZM20.032,51.019l-3.266,5.688a13.766,13.766,0,0,0-1.551,3.184h-.05c.058-1.194-.109-2.659-.124-3.487l-.361-5.385H8.567L8.5,51.38a2.534,2.534,0,0,1,2.758,2.4l1.191,10.652h3.762l7.607-13.415ZM48.271,64.435l-.1-2-4.534,0-.927,2H38.767l7.148-13.393h4.839l1.211,13.393H48.271Zm-.416-7.915a30.788,30.788,0,0,1-.007-3.152h-.054c-.221.666-1.17,2.667-1.588,3.65l-1.351,2.941H48.04l-.185-3.44Zm-14.686,8.3a10.155,10.155,0,0,1-5.48-1.538l1.73-2.642a6.706,6.706,0,0,0,3.916,1.314,1.685,1.685,0,0,0,1.59-.765c.505-.873-.116-1.342-1.535-2.145l-.7-.455c-2.1-1.437-3.012-2.8-2.022-5.184.633-1.524,2.3-2.679,5.06-2.679a8.131,8.131,0,0,1,4.721,1.625L38.46,54.679a4.417,4.417,0,0,0-2.814-1.234,1.693,1.693,0,0,0-1.549.694c-.378.749.122,1.26,1.227,1.946l.833.53c2.553,1.61,3.161,3.3,2.521,4.877C37.577,64.209,35.423,64.816,33.169,64.816Zm19.79-11.725h-.239V51.636h.552c.351,0,.531.123.531.418a.372.372,0,0,1-.38.4l.408.64h-.27l-.376-.622h-.225v.622Zm.267-.826c.18,0,.337-.018.337-.228,0-.176-.172-.2-.316-.2h-.288v.425Zm-.007,1.388A1.314,1.314,0,1,1,54.5,52.339,1.265,1.265,0,0,1,53.218,53.653Zm0-2.4a1.089,1.089,0,1,0,1.005,1.086A1.02,1.02,0,0,0,53.218,51.253Z" transform="translate(-15846 -98)" fill="#005596" fill-rule="evenodd"/>
    </g>
  </g>
</svg>
