<svg xmlns="http://www.w3.org/2000/svg" width="36" height="36" viewBox="0 0 36 36"><defs><style>.a{fill:#333;}</style></defs><path class="a" d="M18,0A18,18,0,1,0,36,18,18,18,0,0,0,18,0Zm.382,28.48h0a10.769,10.769,0,0,1-5.148-1.311l-5.711,1.5,1.528-5.581a10.774,10.774,0,1,1,9.335,5.394Zm0,0"/><path class="a" d="M143.029,124.469a8.955,8.955,0,0,0-7.589,13.715l.213.339-.9,3.3,3.389-.889.327.194a8.94,8.94,0,0,0,4.557,1.248h0a8.955,8.955,0,0,0,0-17.909Zm5.267,12.8a2.773,2.773,0,0,1-1.817,1.28,3.694,3.694,0,0,1-1.7-.107,15.543,15.543,0,0,1-1.535-.567,12,12,0,0,1-4.6-4.063,5.234,5.234,0,0,1-1.1-2.784,3.017,3.017,0,0,1,.942-2.245.99.99,0,0,1,.718-.337c.179,0,.359,0,.516.009s.387-.063.606.462.763,1.863.83,2a.5.5,0,0,1,.023.472,7.668,7.668,0,0,1-.673.92c-.119.148-.275.28-.118.549a8.116,8.116,0,0,0,1.5,1.864,7.358,7.358,0,0,0,2.165,1.336c.269.135.426.112.583-.067s.673-.786.852-1.055.359-.224.606-.135,1.57.741,1.839.875.449.2.516.314a2.245,2.245,0,0,1-.157,1.28Zm0,0" transform="translate(-124.644 -115.717)"/></svg>